<svg width="150" height="40" viewBox="0 0 150 40" fill="none" xmlns="http://www.w3.org/2000/svg">
  <defs>
    <linearGradient id="logo-gradient" x1="0%" y1="0%" x2="100%" y2="0%">
      <stop offset="0%" style="stop-color:#2563EB" />
      <stop offset="100%" style="stop-color:#7C3AED" />
    </linearGradient>
  </defs>
  <path d="M20 10C14.4772 10 10 14.4772 10 20C10 25.5228 14.4772 30 20 30C25.5228 30 30 25.5228 30 20C30 14.4772 25.5228 10 20 10ZM20 28C15.5817 28 12 24.4183 12 20C12 15.5817 15.5817 12 20 12C24.4183 12 28 15.5817 28 20C28 24.4183 24.4183 28 20 28Z" fill="url(#logo-gradient)"/>
  <text x="40" y="25" font-family="Arial" font-size="20" font-weight="bold" fill="#1E293B">Outgrow</text>
</svg> 